<mxfile host="app.diagrams.net" modified="2023-10-23T14:50:29.153Z" agent="Mozilla/5.0 (Windows NT 10.0; Win64; x64; rv:109.0) Gecko/20100101 Firefox/118.0" version="22.0.6" etag="UjoCXsgVAep8EUKHYPxz" type="github">
  <diagram name="Seite-1" id="D9s0Xc0udjt8vb6OH0Oo">
    <mxGraphModel>
      <root>
        <mxCell id="0" />
        <mxCell id="1" parent="0" />
      </root>
    </mxGraphModel>
  </diagram>
</mxfile>
